<?xml version="1.0" standalone="no"?>
<!DOCTYPE svg PUBLIC "-//W3C//DTD SVG 20010904//EN"
 "http://www.w3.org/TR/2001/REC-SVG-20010904/DTD/svg10.dtd">
<svg version="1.0" xmlns="http://www.w3.org/2000/svg"
 width="1024.000000pt" height="1024.000000pt" viewBox="0 0 1024.000000 1024.000000"
 preserveAspectRatio="xMidYMid meet">

<g transform="translate(0.000000,1024.000000) scale(0.100000,-0.100000)"
fill="#000000" stroke="none">
<path d="M0 5120 l0 -5120 5120 0 5120 0 0 5120 0 5120 -5120 0 -5120 0 0
-5120z m5117 4504 c-3 -3 -12 -4 -19 -1 -8 3 -5 6 6 6 11 1 17 -2 13 -5z m96
-1 c-7 -2 -19 -2 -25 0 -7 3 -2 5 12 5 14 0 19 -2 13 -5z m94 1 c-3 -3 -12 -4
-19 -1 -8 3 -5 6 6 6 11 1 17 -2 13 -5z m400 -70 c-3 -3 -12 -4 -19 -1 -8 3
-5 6 6 6 11 1 17 -2 13 -5z m40 0 c-3 -3 -12 -4 -19 -1 -8 3 -5 6 6 6 11 1 17
-2 13 -5z m1243 -364 c8 -5 11 -10 5 -10 -5 0 -17 5 -25 10 -8 5 -10 10 -5 10
6 0 17 -5 25 -10z m-1840 -1000 c601 -27 1110 -133 1488 -310 119 -56 370
-207 478 -288 114 -86 295 -260 389 -376 284 -351 495 -848 564 -1331 57 -395
50 -884 -19 -1282 -100 -588 -344 -1063 -741 -1448 -208 -202 -396 -336 -646
-460 -382 -189 -752 -284 -1283 -330 -310 -26 -740 -20 -1965 30 -203 9 -500
18 -660 21 -159 3 -306 10 -325 16 -53 16 -98 65 -116 125 -13 46 -14 83 -4
280 6 126 15 256 20 291 16 113 58 154 195 188 37 9 88 31 114 48 52 35 103
113 122 185 15 57 25 2985 11 3267 -8 168 -10 186 -36 238 -37 75 -87 109
-213 142 -54 14 -114 36 -134 49 -63 41 -68 62 -80 366 -14 348 -9 399 44 457
44 48 91 53 552 62 370 8 671 19 1510 59 241 12 485 12 735 1z m-4528 -1152
c-8 -8 -9 -4 -5 13 4 13 8 18 11 10 2 -7 -1 -18 -6 -23z m-375 -2300 c-3 -8
-6 -5 -6 6 -1 11 2 17 5 13 3 -3 4 -12 1 -19z m9210 -990 c-3 -8 -6 -5 -6 6
-1 11 2 17 5 13 3 -3 4 -12 1 -19z m-6190 -2864 c-3 -3 -12 -4 -19 -1 -8 3 -5
6 6 6 11 1 17 -2 13 -5z m2220 -310 c-3 -3 -12 -4 -19 -1 -8 3 -5 6 6 6 11 1
17 -2 13 -5z m-794 -11 c-7 -2 -19 -2 -25 0 -7 3 -2 5 12 5 14 0 19 -2 13 -5z
m74 -9 c-3 -3 -12 -4 -19 -1 -8 3 -5 6 6 6 11 1 17 -2 13 -5z m80 0 c-3 -3
-12 -4 -19 -1 -8 3 -5 6 6 6 11 1 17 -2 13 -5z m-160 -130 c-3 -3 -12 -4 -19
-1 -8 3 -5 6 6 6 11 1 17 -2 13 -5z"/>
<path d="M4744 7121 c-120 -19 -205 -66 -242 -134 -16 -30 -17 -139 -17 -1717
0 -1349 3 -1694 13 -1728 18 -61 64 -107 130 -134 53 -21 72 -22 257 -22 146
0 227 5 300 18 629 112 1032 586 1139 1341 52 365 48 828 -9 1135 -129 689
-480 1098 -1050 1222 -100 21 -429 33 -521 19z"/>
</g>
</svg>
